<svg width="36" height="36" viewBox="0 0 36 36" fill="none" xmlns="http://www.w3.org/2000/svg">
<g clip-path="url(#clip0_1_23)">
<path d="M11.201 -0.0829194L9.56822 0.40966C8.1119 0.848346 6.81124 1.694 5.81939 2.84706C4.82753 4.00011 4.18578 5.41256 3.96969 6.91809C3.2924 11.6341 4.80662 17.1482 8.45763 23.4719C12.0995 29.7797 16.1086 33.8435 20.5213 35.6222C21.9391 36.1937 23.4912 36.3459 24.993 36.0609C26.4948 35.7759 27.8833 35.0656 28.9932 34.0145L30.2314 32.8423C31.0337 32.0824 31.5328 31.0571 31.636 29.9569C31.7392 28.8568 31.4394 27.7565 30.7924 26.8607L27.7001 22.5734C27.2821 21.9946 26.6934 21.5612 26.0165 21.3338C25.3397 21.1064 24.6087 21.0965 23.926 21.3055L19.2488 22.7354L19.1279 22.7582C18.6125 22.8334 17.4244 21.7183 15.9421 19.1505C14.3914 16.4641 14.0676 14.8929 14.4963 14.4869L16.8771 12.268C17.7465 11.457 18.3402 10.3941 18.575 9.22854C18.8097 8.06295 18.6737 6.85312 18.1861 5.76874L16.681 2.41418C16.2269 1.40372 15.4206 0.593055 14.4126 0.133543C13.4046 -0.325969 12.2639 -0.402912 11.2033 -0.0829194H11.201ZM14.5989 3.34917L16.1063 6.70373C16.3994 7.35418 16.4814 8.08013 16.3407 8.77958C16.2 9.47902 15.8437 10.1168 15.3218 10.6033L12.9365 12.8245C11.4085 14.268 11.9148 16.7377 13.9649 20.2907C15.8965 23.6339 17.657 25.2849 19.5475 24.9976L19.8303 24.9383L24.5919 23.4856C24.8195 23.4157 25.0633 23.4188 25.289 23.4945C25.5148 23.5701 25.7112 23.7146 25.8507 23.9075L28.943 28.1948C29.2668 28.6428 29.4169 29.1931 29.3653 29.7435C29.3137 30.2938 29.0639 30.8067 28.6625 31.1867L27.4242 32.3589C26.6314 33.1092 25.6398 33.6162 24.5674 33.8195C23.4949 34.0228 22.3866 33.914 21.3741 33.506C17.5019 31.9461 13.8418 28.2358 10.4325 22.3317C7.01639 16.4139 5.63443 11.3809 6.22735 7.24191C6.3816 6.16624 6.84006 5.15706 7.54872 4.33325C8.25738 3.50944 9.18673 2.90532 10.2273 2.59206L11.8624 2.09948C12.3925 1.94019 12.9624 1.97914 13.4659 2.20908C13.9694 2.43901 14.3721 2.84423 14.5989 3.34917Z" fill="#0395A4"/>
</g>
<defs>
<clipPath id="clip0_1_23">
<rect width="36" height="36" fill="white"/>
</clipPath>
</defs>
</svg>
