<svg width="36" height="36" viewBox="0 0 36 36" fill="none" xmlns="http://www.w3.org/2000/svg">
<path d="M17.8516 8.97266C16.9615 8.97266 16.0915 9.23658 15.3515 9.73104C14.6115 10.2255 14.0347 10.9283 13.6941 11.7506C13.3535 12.5728 13.2644 13.4776 13.438 14.3506C13.6117 15.2235 14.0402 16.0253 14.6696 16.6546C15.2989 17.284 16.1007 17.7126 16.9737 17.8862C17.8466 18.0598 18.7514 17.9707 19.5736 17.6301C20.3959 17.2895 21.0987 16.7127 21.5932 15.9727C22.0876 15.2327 22.3516 14.3627 22.3516 13.4727C22.3502 12.2796 21.8757 11.1358 21.032 10.2922C20.1884 9.44856 19.0446 8.97401 17.8516 8.97266ZM17.8516 15.7227C17.4066 15.7227 16.9715 15.5907 16.6015 15.3435C16.2315 15.0962 15.9431 14.7448 15.7728 14.3337C15.6025 13.9226 15.558 13.4702 15.6448 13.0337C15.7316 12.5972 15.9459 12.1963 16.2606 11.8817C16.5752 11.567 16.9762 11.3527 17.4126 11.2659C17.8491 11.1791 18.3015 11.2236 18.7126 11.3939C19.1237 11.5642 19.4751 11.8526 19.7224 12.2226C19.9696 12.5926 20.1016 13.0276 20.1016 13.4727C20.1009 14.0692 19.8636 14.6411 19.4418 15.0629C19.02 15.4847 18.4481 15.722 17.8516 15.7227Z" fill="#0395A4"/>
<path d="M26.5 4.81505C24.3619 2.67758 21.508 1.40783 18.4888 1.25088C15.4697 1.09392 12.4994 2.06088 10.1513 3.96513C7.80314 5.86938 6.24361 8.57592 5.77368 11.5624C5.30374 14.5489 5.95671 17.6036 7.60657 20.1369L16.1078 33.1878C16.297 33.4782 16.5557 33.7168 16.8604 33.882C17.1651 34.0472 17.5062 34.1337 17.8528 34.1337C18.1994 34.1337 18.5405 34.0472 18.8452 33.882C19.1499 33.7168 19.4086 33.4782 19.5978 33.1878L28.0994 20.1369C29.6302 17.7869 30.3068 14.982 30.0156 12.1925C29.7244 9.40294 28.4832 6.79827 26.5 4.81505ZM26.2141 18.9088L17.8529 31.7443L9.49151 18.9088C6.93213 14.9798 7.48106 9.72181 10.7967 6.40601C11.7233 5.47937 12.8234 4.74431 14.0341 4.24282C15.2448 3.74132 16.5424 3.4832 17.8529 3.4832C19.1633 3.4832 20.4609 3.74132 21.6716 4.24282C22.8823 4.74431 23.9824 5.47937 24.909 6.40601C28.2247 9.72181 28.7735 14.9798 26.2141 18.9088Z" fill="#0395A4"/>
</svg>
