<svg width="232" height="40" viewBox="0 0 232 40" fill="none" xmlns="http://www.w3.org/2000/svg">
<circle cx="19.6308" cy="19.6308" r="19.6308" fill="#0395A4"/>
<g opacity="0.89">
<g clip-path="url(#clip0_1_111)">
<path d="M23.902 12.5195H21.7682C20.825 12.5195 19.9205 12.8942 19.2535 13.5611C18.5866 14.2281 18.2119 15.1326 18.2119 16.0758V18.2096H16.0781V21.0546H18.2119V26.7447H21.0569V21.0546H23.1907L23.902 18.2096H21.0569V16.0758C21.0569 15.8872 21.1319 15.7063 21.2653 15.5729C21.3987 15.4395 21.5796 15.3646 21.7682 15.3646H23.902V12.5195Z" stroke="white" stroke-width="1.42252" stroke-linecap="round" stroke-linejoin="round"/>
</g>
</g>
<circle cx="83.8769" cy="19.6308" r="19.6308" fill="#0395A4"/>
<g opacity="0.89">
<g clip-path="url(#clip1_1_111)">
<path d="M91.7024 13.2298C91.0213 13.7102 90.2672 14.0777 89.469 14.318C89.0407 13.8255 88.4714 13.4764 87.8382 13.318C87.2049 13.1595 86.5383 13.1994 85.9285 13.4321C85.3186 13.6649 84.795 14.0793 84.4283 14.6194C84.0617 15.1595 83.8698 15.7991 83.8785 16.4518V17.1631C82.6286 17.1955 81.39 16.9183 80.2732 16.3561C79.1563 15.794 78.1958 14.9643 77.4772 13.9411C77.4772 13.9411 74.6322 20.3424 81.0335 23.1874C79.5687 24.1818 77.8237 24.6803 76.0547 24.61C82.456 28.1663 90.2799 24.61 90.2799 16.4305C90.2792 16.2324 90.2602 16.0347 90.223 15.8401C90.9489 15.1242 91.4612 14.2204 91.7024 13.2298V13.2298Z" stroke="white" stroke-width="1.42252" stroke-linecap="round" stroke-linejoin="round"/>
</g>
</g>
<circle cx="148.123" cy="19.6308" r="19.6308" fill="#0395A4"/>
<g opacity="0.89">
<g clip-path="url(#clip2_1_111)">
<path d="M151.685 12.5195H144.572C142.608 12.5195 141.016 14.1117 141.016 16.0758V23.1884C141.016 25.1525 142.608 26.7447 144.572 26.7447H151.685C153.649 26.7447 155.241 25.1525 155.241 23.1884V16.0758C155.241 14.1117 153.649 12.5195 151.685 12.5195Z" stroke="white" stroke-width="1.42252" stroke-linecap="round" stroke-linejoin="round"/>
<path d="M150.972 19.1855C151.06 19.7775 150.958 20.382 150.683 20.9132C150.407 21.4444 149.971 21.8751 149.437 22.1441C148.902 22.4132 148.296 22.5068 147.706 22.4118C147.115 22.3167 146.569 22.0377 146.146 21.6146C145.723 21.1915 145.444 20.6457 145.349 20.0548C145.254 19.464 145.347 18.8583 145.616 18.3238C145.885 17.7892 146.316 17.3531 146.847 17.0775C147.378 16.8019 147.983 16.7008 148.575 16.7886C149.179 16.8781 149.738 17.1595 150.169 17.5911C150.601 18.0227 150.882 18.5817 150.972 19.1855Z" stroke="white" stroke-width="1.42252" stroke-linecap="round" stroke-linejoin="round"/>
<path d="M152.039 15.7188H152.047" stroke="white" stroke-width="1.42252" stroke-linecap="round" stroke-linejoin="round"/>
</g>
</g>
<circle cx="212.369" cy="19.6308" r="19.6308" fill="#0395A4"/>
<g opacity="0.89">
<path d="M215.344 16.6523C216.528 16.6523 217.662 17.1224 218.499 17.9591C219.336 18.7958 219.806 19.9306 219.806 21.1139V26.319H216.832V21.1139C216.832 20.7195 216.675 20.3412 216.396 20.0623C216.117 19.7834 215.739 19.6267 215.344 19.6267C214.95 19.6267 214.572 19.7834 214.293 20.0623C214.014 20.3412 213.857 20.7195 213.857 21.1139V26.319H210.883V21.1139C210.883 19.9306 211.353 18.7958 212.19 17.9591C213.026 17.1224 214.161 16.6523 215.344 16.6523V16.6523Z" stroke="white" stroke-width="1.48718" stroke-linecap="round" stroke-linejoin="round"/>
<path d="M207.908 17.3984H204.934V26.3215H207.908V17.3984Z" stroke="white" stroke-width="1.48718" stroke-linecap="round" stroke-linejoin="round"/>
<path d="M206.421 15.1658C207.242 15.1658 207.908 14.4999 207.908 13.6786C207.908 12.8572 207.242 12.1914 206.421 12.1914C205.599 12.1914 204.934 12.8572 204.934 13.6786C204.934 14.4999 205.599 15.1658 206.421 15.1658Z" stroke="white" stroke-width="1.48718" stroke-linecap="round" stroke-linejoin="round"/>
</g>
<defs>
<clipPath id="clip0_1_111">
<rect width="17.0702" height="17.0702" fill="white" transform="translate(11.0977 11.0977)"/>
</clipPath>
<clipPath id="clip1_1_111">
<rect width="17.0702" height="17.0702" fill="white" transform="translate(75.3438 11.0977)"/>
</clipPath>
<clipPath id="clip2_1_111">
<rect width="17.0702" height="17.0702" fill="white" transform="translate(139.59 11.0977)"/>
</clipPath>
</defs>
</svg>
