<svg width="33" height="32" viewBox="0 0 33 32" fill="none" xmlns="http://www.w3.org/2000/svg">
<path d="M16.5 18.8C15 18.8 13.7 17.6 13.7 16C13.7 14.5 14.9 13.2 16.5 13.2C18 13.2 19.3 14.4 19.3 16C19.3 17.5 18 18.8 16.5 18.8Z" fill="white"/>
<path fill-rule="evenodd" clip-rule="evenodd" d="M19.9 9.2H13.1C12.3 9.3 11.9 9.4 11.6 9.5C11.2 9.6 10.9 9.8 10.6 10.1C10.3626 10.3374 10.2505 10.5748 10.1149 10.8617C10.0792 10.9373 10.0417 11.0166 10 11.1C9.98453 11.1464 9.96667 11.1952 9.94752 11.2475C9.84291 11.5333 9.7 11.9238 9.7 12.6V19.4C9.8 20.2 9.9 20.6 10 20.9C10.1 21.3 10.3 21.6 10.6 21.9C10.8374 22.1374 11.0748 22.2495 11.3617 22.3851C11.4374 22.4209 11.5165 22.4583 11.6 22.5C11.6464 22.5155 11.6952 22.5333 11.7475 22.5525C12.0333 22.6571 12.4238 22.8 13.1 22.8H19.9C20.7 22.7 21.1 22.6 21.4 22.5C21.8 22.4 22.1 22.2 22.4 21.9C22.6374 21.6626 22.7495 21.4252 22.8851 21.1383C22.9209 21.0626 22.9583 20.9835 23 20.9C23.0155 20.8536 23.0333 20.8048 23.0525 20.7525C23.1571 20.4667 23.3 20.0762 23.3 19.4V12.6C23.2 11.8 23.1 11.4 23 11.1C22.9 10.7 22.7 10.4 22.4 10.1C22.1626 9.86261 21.9252 9.75045 21.6383 9.61488C21.5627 9.57918 21.4833 9.54167 21.4 9.5C21.3536 9.48453 21.3048 9.46666 21.2525 9.44752C20.9667 9.3429 20.5762 9.2 19.9 9.2ZM16.5 11.7C14.1 11.7 12.2 13.6 12.2 16C12.2 18.4 14.1 20.3 16.5 20.3C18.9 20.3 20.8 18.4 20.8 16C20.8 13.6 18.9 11.7 16.5 11.7ZM21.9 11.6C21.9 12.1523 21.4523 12.6 20.9 12.6C20.3477 12.6 19.9 12.1523 19.9 11.6C19.9 11.0477 20.3477 10.6 20.9 10.6C21.4523 10.6 21.9 11.0477 21.9 11.6Z" fill="white"/>
<path fill-rule="evenodd" clip-rule="evenodd" d="M0.5 16C0.5 7.16344 7.66344 0 16.5 0C25.3366 0 32.5 7.16344 32.5 16C32.5 24.8366 25.3366 32 16.5 32C7.66344 32 0.5 24.8366 0.5 16ZM13.1 7.7H19.9C20.8 7.8 21.4 7.9 21.9 8.1C22.5 8.4 22.9 8.6 23.4 9.1C23.9 9.6 24.2 10.1 24.4 10.6C24.6 11.1 24.8 11.7 24.8 12.6V19.4C24.7 20.3 24.6 20.9 24.4 21.4C24.1 22 23.9 22.4 23.4 22.9C22.9 23.4 22.4 23.7 21.9 23.9C21.4 24.1 20.8 24.3 19.9 24.3H13.1C12.2 24.2 11.6 24.1 11.1 23.9C10.5 23.6 10.1 23.4 9.6 22.9C9.1 22.4 8.8 21.9 8.6 21.4C8.4 20.9 8.2 20.3 8.2 19.4V12.6C8.3 11.7 8.4 11.1 8.6 10.6C8.9 10 9.1 9.6 9.6 9.1C10.1 8.6 10.6 8.3 11.1 8.1C11.6 7.9 12.2 7.7 13.1 7.7Z" fill="white"/>
</svg>
