<svg width="33" height="32" viewBox="0 0 33 32" fill="none" xmlns="http://www.w3.org/2000/svg">
<path fill-rule="evenodd" clip-rule="evenodd" d="M0.5 16C0.5 7.16344 7.66344 0 16.5 0C25.3366 0 32.5 7.16344 32.5 16C32.5 24.8366 25.3366 32 16.5 32C7.66344 32 0.5 24.8366 0.5 16ZM22.6 11.5C23.3 11.4 23.9 11.3 24.5 11C24.1 11.7 23.5 12.3 22.8 12.7C23 17.4 19.6 22.5 13.5 22.5C11.7 22.5 10 21.9 8.5 21C10.2 21.2 12 20.7 13.2 19.8C11.7 19.8 10.5 18.8 10.1 17.5C10.6 17.6 11.1 17.5 11.6 17.4C10.1 17 9 15.6 9 14.1C9.5 14.3 10 14.5 10.5 14.5C9.1 13.5 8.6 11.6 9.5 10.1C11.2 12.1 13.6 13.4 16.3 13.5C15.8 11.5 17.4 9.5 19.5 9.5C20.4 9.5 21.3 9.9 21.9 10.5C22.7 10.3 23.4 10.1 24 9.7C23.8 10.5 23.3 11.1 22.6 11.5Z" fill="white"/>
</svg>
